# xmcd
#
# Track frame offsets:
#	150
#	9412
#	21912
#	34675
#	49437
#	61800
#	73750
#	83350
#	100650
#
# Disc length: 1487
#
# Revision: 1
# Processed by: cddbd v1.5.1PL0 Copyright (c) Steve Scherf et al.
# Submitted via: dBpowerAMP V4.0
# Normalized: r0:TDELIM( - )
#
DISCID=6705cd09
DTITLE=James Brown and Otis Redding - The Soul Connection Volume 1
DYEAR=1900
DGENRE=Soul
TTITLE0=James Brown - Cold Sweat
TTITLE1=Otis Redding - Satisfaction
TTITLE2=James Brown - Stagger Lee
TTITLE3=Otis Redding - I've Been Loving You Too Long
TTITLE4=James Brown - It's A Man's World
TTITLE5=Otis Redding - Fa-Fa-Fa-Fa-Fa
TTITLE6=James Brown - Papa's Got A Brand New Bag
TTITLE7=Otis Redding - Try A Little Tenderness
TTITLE8=James Brown - Prisoner Of Love
EXTD=
EXTT0=
EXTT1=
EXTT2=
EXTT3=
EXTT4=
EXTT5=
EXTT6=
EXTT7=
EXTT8=
PLAYORDER=
